PathFileType	4	(X/Y/Z)	8_coords_data.trc
DataRate	CameraRate	NumFrames	NumMarkers	Units	OrigDataRate	OrigDataStartFrame	OrigNumFrames
30.0	30.0	9	21	m	30.0	21	62
Frame#	Time	THUMB_TIP	THUMB_IP	THUMB_MCP	THUMB_CMC	INDEX_TIP	INDEX_DIP	INDEX_PIP	INDEX_MCP	MIDDLE_TIP	MIDDLE_DIP	MIDDLE_PIP	MIDDLE_MCP	RING_TIP	RING_DIP	RING_PIP	RING_MCP	PINKY_TIP	PINKY_DIP	PINKY_PIP	PINKY_MCP	WRIST
X1	Y1	Z1	X2	Y2	Z2	X3	Y3	Z3	X4	Y4	Z4	X5	Y5	Z5	X6	Y6	Z6	X7	Y7	Z7	X8	Y8	Z8	X9	Y9	Z9	X10	Y10	Z10	X11	Y11	Z11	X12	Y12	Z12	X13	Y13	Z13	X14	Y14	Z14	X15	Y15	Z15	X16	Y16	Z16	X17	Y17	Z17	X18	Y18	Z18	X19	Y19	Z19	X20	Y20	Z20	X21	Y21	Z21
20	0.6666666666666666	-0.0080556001663208	-0.087806396484375	1.014760009765625	-0.011717499732971192	-0.06765059661865234	1.0318199462890625	-0.015884499549865722	-0.046940799713134765	1.04856005859375	-0.018444099426269532	-0.016724199295043946	1.060739990234375	0.002824640035629272	-0.06723079681396485	0.9391859741210937	-0.00460129976272583	-0.05951620101928711	0.958073974609375	-0.013840700149536133	-0.051556198120117185	0.976489990234375	-0.02337929916381836	-0.03488169860839844	1.0083599853515626	0.000800824999809265	-0.028170200347900392	0.917823974609375	-0.006881589889526367	-0.025386899948120118	0.9407990112304687	-0.018617500305175783	-0.021519399642944335	0.9655079956054687	-0.026565900802612306	-0.014289400100708009	1.0018099975585937	0.006927110195159912	0.007390989780426026	0.9267969970703125	-0.003849519968032837	0.007615540027618408	0.947541015625	-0.016170799255371095	0.007643539905548096	0.96975	-0.021631200790405272	0.005286550045013428	1.0024400024414062	0.01698579978942871	0.04696979904174805	0.9617849731445313	0.005717629909515381	0.03989889907836914	0.976583984375	-0.004368189811706543	0.03323270034790039	0.9891170043945312	-0.015710499763488768	0.02191119956970215	1.0089199829101563	-0.042230499267578124	0.011630499839782715	1.0719599609375
21	0.7	-0.007738870143890381	-0.08761859893798828	1.0146099853515624	-0.011490699768066406	-0.06748539733886719	1.0316800537109374	-0.01573900032043457	-0.04679499816894531	1.0484599609375	-0.018372299194335938	-0.016595699310302733	1.0605799560546876	0.003070899963378906	-0.0668053970336914	0.938948974609375	-0.00443927001953125	-0.05918220138549805	0.9579169921875	-0.01368929958343506	-0.051315898895263674	0.97631298828125	-0.023222400665283204	-0.03472760009765625	1.008219970703125	0.000998618006706237	-0.02786949920654297	0.9177139892578124	-0.0066449899673461914	-0.02511829948425293	0.9406500244140625	-0.018410100936889648	-0.02129520034790039	0.9653759765625	-0.026506799697875977	-0.014142900466918946	1.001530029296875	0.007212289810180664	0.007713349819183349	0.9267630004882812	-0.003609009981155395	0.007892139911651611	0.947469970703125	-0.015981300354003906	0.007871749877929688	0.969718994140625	-0.021537200927734375	0.005503339767456055	1.0024000244140625	0.017153999328613282	0.04725730133056641	0.961843994140625	0.0058738598823547365	0.04015380096435547	0.976625	-0.004231410026550293	0.03345479965209961	0.9891160278320312	-0.015595199584960938	0.02210740089416504	1.0088599853515625	-0.04216579818725586	0.011676699638366698	1.071760009765625
22	0.7333333333333333	-0.007680850028991699	-0.08753469848632812	1.0145	-0.011386099815368653	-0.06749700164794922	1.031530029296875	-0.01569550037384033	-0.046706199645996094	1.0483299560546875	-0.018361700057983397	-0.01651919937133789	1.06047998046875	0.002952029943466186	-0.06672380065917968	0.9387009887695312	-0.004522830009460449	-0.059091201782226564	0.957677978515625	-0.013740599632263184	-0.05124909973144531	0.9760809936523438	-0.02317219924926758	-0.03462210083007813	1.0081099853515625	0.001121620059013366	-0.027805299758911134	0.9175859985351562	-0.0065708599090576175	-0.02504949951171875	0.940530029296875	-0.018394399642944335	-0.021226699829101563	0.9652789916992187	-0.026465200424194337	-0.014111599922180175	1.0013699951171875	0.007252980232238769	0.007745419979095459	0.9266309814453125	-0.00356124997138977	0.007921430110931396	0.9473629760742187	-0.01592240047454834	0.007905539989471435	0.9695830078125	-0.021493499755859374	0.0055362401008605955	1.00225	0.01718320083618164	0.04731039810180664	0.9617529907226563	0.0058890700340270994	0.04018119812011719	0.97652001953125	-0.004248129844665527	0.033472599029541014	0.9890159912109375	-0.015594499588012695	0.02212700080871582	1.00875	-0.042215599060058596	0.01174839973449707	1.07168994140625
23	0.7666666666666667	-0.007647819995880127	-0.08752189636230469	1.014260009765625	-0.011418700218200684	-0.06745500183105468	1.0313299560546876	-0.015695300102233887	-0.04676890182495117	1.0480899658203124	-0.018399499893188478	-0.016582300186157226	1.06022998046875	0.0033720300197601317	-0.06663310241699219	0.9386309814453125	-0.004239500045776367	-0.05903969955444336	0.9575490112304688	-0.013569100379943848	-0.05121559906005859	0.9759320068359375	-0.023100900650024413	-0.034600399017333985	1.0079299926757812	0.001310719966888427	-0.027723699569702148	0.9174439697265625	-0.006456480026245117	-0.02501810073852539	0.9403670043945312	-0.01827079963684082	-0.021199600219726562	0.965083984375	-0.026253700256347656	-0.014055000305175782	1.0011799926757812	0.00731358003616333	0.007789040088653564	0.9264829711914062	-0.003506989955902099	0.007939670085906982	0.9471599731445313	-0.015887299537658692	0.007915530204772949	0.9693790283203125	-0.021486400604248047	0.005520989894866943	1.002030029296875	0.017153099060058595	0.047414398193359374	0.9616209716796875	0.005842090129852295	0.04025400161743164	0.9763670043945313	-0.004299049854278565	0.03351810073852539	0.988833984375	-0.01561340045928955	0.02212809944152832	1.0085499877929687	-0.04230670166015625	0.011677000045776367	1.0714599609375
24	0.8	-0.007594789981842041	-0.08758399963378906	1.014030029296875	-0.011384599685668946	-0.06748149871826171	1.03106005859375	-0.015739999771118163	-0.04673379898071289	1.047949951171875	-0.01846310043334961	-0.01656410026550293	1.0600899658203125	0.003441370010375976	-0.06668959808349609	0.9385020141601562	-0.004193210124969483	-0.05911970138549805	0.95735400390625	-0.013607199668884278	-0.05130590057373047	0.9757379760742187	-0.02323579978942871	-0.03472079849243164	1.0076900024414062	0.0011367599964141842	-0.027805999755859376	0.9171740112304687	-0.006588759899139404	-0.02505710029602051	0.940114990234375	-0.018401500701904296	-0.02123819923400879	0.964843017578125	-0.026533700942993163	-0.014121999740600586	1.000989990234375	0.007064320087432861	0.007800000190734863	0.926177001953125	-0.003726099967956543	0.007958250045776367	0.9468939819335938	-0.016103000640869142	0.00789670991897583	0.9691190185546875	-0.021642799377441405	0.005495930194854736	1.0018800048828125	0.016912200927734374	0.04739130020141601	0.961291015625	0.0057249398231506345	0.0402505989074707	0.9760440063476562	-0.004404230117797852	0.03350120162963867	0.9885579833984375	-0.015784799575805666	0.022099700927734375	1.0083599853515626	-0.042341999053955075	0.011644100189208985	1.07127001953125
25	0.8333333333333334	-0.007771220207214356	-0.08779519653320313	1.0138599853515624	-0.011578399658203125	-0.06764659881591797	1.03093994140625	-0.01590999984741211	-0.046933101654052733	1.04772998046875	-0.018582300186157228	-0.016746799468994142	1.0598699951171875	0.0032267999649047852	-0.06694660186767579	0.9383670043945312	-0.004424079895019532	-0.05936069869995117	0.957197998046875	-0.01380869960784912	-0.05151369857788086	0.9755499877929688	-0.02336899948120117	-0.034907100677490234	1.007489990234375	0.0010027400255203241	-0.02803339958190918	0.9170349731445312	-0.006752999782562255	-0.025290700912475587	0.9399630126953125	-0.018541500091552733	-0.02147480010986328	0.9646500244140624	-0.02664789962768555	-0.014319399833679199	1.0007899780273437	0.007074979782104493	0.007535850048065185	0.9260560302734375	-0.003763560056686401	0.0077219300270080565	0.9467169799804688	-0.016057500839233397	0.007681970119476318	0.9689119873046875	-0.021719200134277344	0.005305079936981201	1.0016599731445313	0.01698710060119629	0.04713759994506836	0.9611400146484375	0.005719429969787597	0.040012298583984376	0.9759660034179688	-0.004416590213775635	0.0332952995300293	0.988469970703125	-0.015824700355529787	0.021923500061035155	1.0081400146484376	-0.04235589981079101	0.011472200393676758	1.0710799560546875
26	0.8666666666666667	-0.007735030174255371	-0.08789070129394531	1.0136699829101563	-0.011512900352478027	-0.06781939697265625	1.03068994140625	-0.01588549995422363	-0.04709799957275391	1.04752001953125	-0.018597299575805665	-0.01693239974975586	1.0596099853515626	0.003510869979858398	-0.06706890106201172	0.9382830200195312	-0.004255000114440918	-0.059512401580810545	0.9570689697265625	-0.013725299835205079	-0.05165029907226563	0.9754119873046875	-0.023379100799560546	-0.03504679870605469	1.007280029296875	0.0010589200258255	-0.028253900527954103	0.91685400390625	-0.006712540149688721	-0.025478200912475588	0.9397919921875	-0.01853000068664551	-0.021635000228881835	0.9644550170898437	-0.02664889907836914	-0.014441300392150878	1.0005499877929687	0.007038169860839843	0.0073688898086547855	0.9258820190429687	-0.00380935001373291	0.00757144021987915	0.9465670166015625	-0.016188699722290038	0.007541230201721191	0.9687540283203125	-0.02173080062866211	0.005179590225219727	1.0014199829101562	0.016868499755859374	0.04696969985961914	0.960927001953125	0.0056310100555419925	0.03984519958496094	0.9757030029296875	-0.004496399879455566	0.033146900177001955	0.988219970703125	-0.015877599716186522	0.02180620002746582	1.0079400024414062	-0.04241899871826172	0.011311200141906739	1.0709300537109374
27	0.9	-0.0076141200065612796	-0.087931396484375	1.0135599975585938	-0.011461299896240234	-0.0678228988647461	1.0306199951171875	-0.015836700439453125	-0.04713940048217773	1.0474200439453125	-0.018574600219726563	-0.01698509979248047	1.059550048828125	0.003702349901199341	-0.06688950347900391	0.9381129760742187	-0.0041386399269104	-0.05939289855957031	0.956885986328125	-0.013642800331115723	-0.051637001037597656	0.9752420043945312	-0.023307899475097656	-0.035081401824951175	1.0071900024414062	0.001108620047569275	-0.02833110046386719	0.9167139892578124	-0.006635159969329834	-0.02555590057373047	0.93968701171875	-0.018471500396728516	-0.021725799560546873	0.9644039916992188	-0.026582399368286134	-0.01453339958190918	1.0004600219726563	0.006947579860687256	0.007285759925842285	0.9256790161132813	-0.003807830095291137	0.0074732999801635745	0.9463280029296876	-0.01617970085144043	0.007436600208282471	0.9685809936523437	-0.021744699478149415	0.005102749824523926	1.0013599853515625	0.016738399505615235	0.04691439819335937	0.9606790161132812	0.00554203987121582	0.039783500671386716	0.9754810180664063	-0.004551469802856445	0.033069400787353515	0.9880079956054687	-0.015878399848937987	0.021705799102783203	1.0077899780273438	-0.04247140121459961	0.011272199630737305	1.070780029296875
28	0.9333333333333333	-0.0076252098083496095	-0.08791069793701171	1.0134400024414063	-0.011457599639892579	-0.0678375015258789	1.0304599609375	-0.01579319953918457	-0.0471786994934082	1.047239990234375	-0.018526899337768556	-0.01698270034790039	1.0593900146484374	0.003857800006866455	-0.06674140167236328	0.9379959716796875	-0.004052800178527832	-0.05927249908447266	0.9567470092773438	-0.013626899719238281	-0.051568901062011716	0.9750460205078125	-0.0232455997467041	-0.03506560134887695	1.00702001953125	0.001308850049972534	-0.02834000015258789	0.9166160278320312	-0.006472020149230957	-0.025563499450683595	0.9395709838867188	-0.01832390022277832	-0.021720500946044923	0.9642379760742188	-0.026494100570678712	-0.014524200439453124	1.000280029296875	0.007234029769897461	0.007322130203247071	0.925635986328125	-0.003599999904632568	0.007522089958190918	0.9463040161132813	-0.016020299911499024	0.007490409851074219	0.968510009765625	-0.021624799728393554	0.005100130081176758	1.0012000122070313	0.016977699279785156	0.04690900039672852	0.9606300048828125	0.005705470085144043	0.039777099609375	0.975416015625	-0.004400179862976074	0.03308039855957031	0.987927001953125	-0.01579489994049072	0.02170359992980957	1.0076500244140625	-0.042344799041748045	0.01126509952545166	1.0705400390625
